<?xml version="1.0" encoding="utf-8" standalone="no"?>
<!DOCTYPE svg PUBLIC "-//W3C//DTD SVG 1.1//EN"
  "http://www.w3.org/Graphics/SVG/1.1/DTD/svg11.dtd">
<svg xmlns:xlink="http://www.w3.org/1999/xlink" width="576pt" height="360pt" viewBox="0 0 576 360" xmlns="http://www.w3.org/2000/svg" version="1.1">
 <metadata>
  <rdf:RDF xmlns:dc="http://purl.org/dc/elements/1.1/" xmlns:cc="http://creativecommons.org/ns#" xmlns:rdf="http://www.w3.org/1999/02/22-rdf-syntax-ns#">
   <cc:Work>
    <dc:type rdf:resource="http://purl.org/dc/dcmitype/StillImage"/>
    <dc:date>2025-05-01T07:15:26.655699</dc:date>
    <dc:format>image/svg+xml</dc:format>
    <dc:creator>
     <cc:Agent>
      <dc:title>Matplotlib v3.10.0, https://matplotlib.org/</dc:title>
     </cc:Agent>
    </dc:creator>
   </cc:Work>
  </rdf:RDF>
 </metadata>
 <defs>
  <style type="text/css">*{stroke-linejoin: round; stroke-linecap: butt}</style>
 </defs>
 <g id="figure_1">
  <g id="patch_1">
   <path d="M 0 360 
L 576 360 
L 576 0 
L 0 0 
z
" style="fill: #ffffff"/>
  </g>
  <g id="axes_1">
   <g id="line2d_1">
    <path d="M 102.786207 60.525 
L 102.786207 166.2075 
" clip-path="url(#pf6cd89d0e0)" style="fill: none; stroke: #000000; stroke-width: 3; stroke-linecap: square"/>
   </g>
   <g id="line2d_2">
    <path d="M 102.786207 171.405 
L 102.786207 192.195 
" clip-path="url(#pf6cd89d0e0)" style="fill: none; stroke: #000000; stroke-width: 3; stroke-linecap: square"/>
   </g>
   <g id="line2d_3">
    <path d="M 102.786207 197.3925 
L 102.786207 303.075 
" clip-path="url(#pf6cd89d0e0)" style="fill: none; stroke: #000000; stroke-width: 3; stroke-linecap: square"/>
   </g>
   <g id="line2d_4">
    <path d="M 472.22069 303.075 
L 472.22069 60.525 
" clip-path="url(#pf6cd89d0e0)" style="fill: none; stroke: #000000; stroke-width: 2; stroke-linecap: square"/>
   </g>
   <g id="line2d_5">
    <path d="M 458.932943 303.075 
L 459.719971 300.551471 
L 460.769781 297.930882 
L 462.177658 295.019118 
L 464.174994 291.427941 
L 469.725323 281.722059 
L 470.836464 279.198529 
L 471.583258 276.966176 
L 472.028826 274.927941 
L 472.210352 273.083824 
L 472.170482 271.336765 
L 471.912885 269.589706 
L 471.43131 267.842647 
L 470.725195 266.095588 
L 469.74257 264.251471 
L 468.390546 262.213235 
L 466.625995 259.980882 
L 464.253527 257.360294 
L 460.300816 253.380882 
L 456.137523 249.110294 
L 454.080056 246.683824 
L 452.707767 244.742647 
L 451.735434 242.995588 
L 451.112074 241.442647 
L 450.753682 239.986765 
L 450.627457 238.530882 
L 450.726343 237.172059 
L 451.036918 235.813235 
L 451.602195 234.357353 
L 452.460985 232.804412 
L 453.643342 231.154412 
L 455.256657 229.310294 
L 457.437336 227.175 
L 460.760638 224.263235 
L 466.669004 219.119118 
L 468.757796 216.983824 
L 470.169483 215.236765 
L 471.145821 213.683824 
L 471.7556 212.325 
L 472.117577 210.966176 
L 472.22038 209.704412 
L 472.092512 208.442647 
L 471.732909 207.180882 
L 471.145328 205.919118 
L 470.267555 204.560294 
L 469.064135 203.104412 
L 467.407112 201.454412 
L 465.128908 199.513235 
L 461.669065 196.892647 
L 453.722808 190.972059 
L 451.54217 189.030882 
L 450.001727 187.380882 
L 448.92937 185.925 
L 448.199509 184.566176 
L 447.772455 183.304412 
L 447.600782 182.139706 
L 447.64604 180.975 
L 447.907402 179.810294 
L 448.428794 178.548529 
L 449.254721 177.189706 
L 450.421028 175.733824 
L 452.053497 174.083824 
L 454.318567 172.142647 
L 457.640855 169.619118 
L 465.84431 163.504412 
L 468.124218 161.466176 
L 469.658012 159.816176 
L 470.799444 158.263235 
L 471.533533 156.904412 
L 471.98153 155.642647 
L 472.198662 154.380882 
L 472.184149 153.119118 
L 471.941965 151.857353 
L 471.480652 150.595588 
L 470.753591 149.236765 
L 469.657011 147.683824 
L 468.131504 145.936765 
L 466.04525 143.898529 
L 462.713089 140.986765 
L 456.917168 135.939706 
L 454.716856 133.707353 
L 453.195941 131.863235 
L 452.108906 130.213235 
L 451.347602 128.660294 
L 450.877921 127.204412 
L 450.650485 125.748529 
L 450.656833 124.389706 
L 450.892725 122.933824 
L 451.355268 121.477941 
L 452.081239 119.925 
L 453.155833 118.177941 
L 454.622428 116.236765 
L 456.674772 113.907353 
L 460.006782 110.510294 
L 465.341563 105.075 
L 467.580646 102.454412 
L 469.195869 100.222059 
L 470.340529 98.280882 
L 471.183223 96.436765 
L 471.777397 94.592647 
L 472.109228 92.845588 
L 472.220651 91.098529 
L 472.109958 89.254412 
L 471.758633 87.313235 
L 471.158127 85.275 
L 470.268986 83.042647 
L 468.932022 80.325 
L 466.892877 76.733824 
L 462.127191 68.483824 
L 460.642236 65.377941 
L 459.584064 62.660294 
L 458.932943 60.525 
L 458.932943 60.525 
" clip-path="url(#pf6cd89d0e0)" style="fill: none; stroke: #ff0000; stroke-linecap: square"/>
   </g>
   <g id="line2d_6">
    <path d="M 472.22069 303.075 
L 472.110942 239.501471 
L 471.866086 234.454412 
L 471.48491 230.960294 
L 470.959023 228.145588 
L 470.281131 225.719118 
L 469.420619 223.486765 
L 468.397223 221.448529 
L 467.116394 219.410294 
L 465.558035 217.372059 
L 463.716199 215.333824 
L 461.389087 213.101471 
L 458.426667 210.577941 
L 453.707968 206.889706 
L 448.060345 202.425 
L 445.354091 199.998529 
L 443.405008 197.960294 
L 441.938678 196.116176 
L 440.821311 194.369118 
L 439.960307 192.622059 
L 439.303391 190.777941 
L 438.846251 188.836765 
L 438.535609 186.507353 
L 438.375328 183.498529 
L 438.39185 179.519118 
L 438.604709 176.413235 
L 438.982303 174.083824 
L 439.517634 172.142647 
L 440.219995 170.395588 
L 441.164535 168.648529 
L 442.370006 166.901471 
L 443.928041 165.057353 
L 445.864724 163.116176 
L 448.524984 160.786765 
L 452.569936 157.583824 
L 459.71709 151.954412 
L 462.540396 149.430882 
L 464.716032 147.198529 
L 466.483232 145.063235 
L 467.881259 143.025 
L 469.011812 140.986765 
L 469.937779 138.851471 
L 470.66352 136.619118 
L 471.242911 134.095588 
L 471.673419 131.183824 
L 471.96979 127.592647 
L 472.146315 122.545588 
L 472.215704 112.936765 
L 472.22069 60.525 
L 472.22069 60.525 
" clip-path="url(#pf6cd89d0e0)" style="fill: none; stroke-dasharray: 3.7,1.6; stroke-dashoffset: 0; stroke: #000000"/>
   </g>
   <g id="line2d_7">
    <path d="M 102.786207 168.80625 
L 472.22069 124.277025 
" clip-path="url(#pf6cd89d0e0)" style="fill: none; stroke: #000000; stroke-width: 1.5; stroke-linecap: square"/>
   </g>
   <g id="line2d_8">
    <path d="M 102.786207 194.79375 
L 472.22069 124.277025 
" clip-path="url(#pf6cd89d0e0)" style="fill: none; stroke: #000000; stroke-width: 1.5; stroke-linecap: square"/>
   </g>
   <g id="text_1">
    <!-- $L_2$ -->
    <g transform="translate(293.66069 137.096638) scale(0.16 -0.16)">
     <defs>
      <path id="Cmmi10-4c" d="M 300 0 
Q 238 0 238 84 
Q 241 100 250 139 
Q 259 178 276 201 
Q 294 225 319 225 
Q 709 225 863 269 
Q 947 297 984 441 
L 1863 3956 
Q 1875 4019 1875 4044 
Q 1875 4113 1797 4122 
Q 1678 4147 1338 4147 
Q 1275 4147 1275 4231 
Q 1297 4313 1309 4342 
Q 1322 4372 1381 4372 
L 3272 4372 
Q 3328 4372 3328 4288 
Q 3319 4222 3306 4184 
Q 3294 4147 3244 4147 
Q 2772 4147 2613 4116 
Q 2456 4088 2419 3928 
L 1544 416 
Q 1516 338 1516 275 
Q 1516 225 1734 225 
L 2328 225 
Q 2831 225 3143 425 
Q 3456 625 3606 876 
Q 3756 1128 3857 1398 
Q 3959 1669 4006 1678 
L 4063 1678 
Q 4128 1678 4128 1594 
L 3559 44 
Q 3550 0 3500 0 
L 300 0 
z
" transform="scale(0.015625)"/>
      <path id="Cmr10-32" d="M 319 0 
L 319 172 
Q 319 188 331 206 
L 1325 1306 
Q 1550 1550 1690 1715 
Q 1831 1881 1968 2097 
Q 2106 2313 2186 2536 
Q 2266 2759 2266 3009 
Q 2266 3272 2169 3511 
Q 2072 3750 1880 3894 
Q 1688 4038 1416 4038 
Q 1138 4038 916 3870 
Q 694 3703 603 3438 
Q 628 3444 672 3444 
Q 816 3444 917 3347 
Q 1019 3250 1019 3097 
Q 1019 2950 917 2848 
Q 816 2747 672 2747 
Q 522 2747 420 2851 
Q 319 2956 319 3097 
Q 319 3338 409 3548 
Q 500 3759 670 3923 
Q 841 4088 1055 4175 
Q 1269 4263 1509 4263 
Q 1875 4263 2190 4108 
Q 2506 3953 2690 3670 
Q 2875 3388 2875 3009 
Q 2875 2731 2753 2481 
Q 2631 2231 2440 2026 
Q 2250 1822 1953 1562 
Q 1656 1303 1563 1216 
L 838 519 
L 1453 519 
Q 1906 519 2211 526 
Q 2516 534 2534 550 
Q 2609 631 2688 1141 
L 2875 1141 
L 2694 0 
L 319 0 
z
" transform="scale(0.015625)"/>
     </defs>
     <use xlink:href="#Cmmi10-4c" transform="translate(0 0.6875)"/>
     <use xlink:href="#Cmr10-32" transform="translate(68.017578 -16.31875) scale(0.7)"/>
    </g>
   </g>
   <g id="text_2">
    <!-- $L_1$ -->
    <g transform="translate(293.66069 177.810388) scale(0.16 -0.16)">
     <defs>
      <path id="Cmr10-31" d="M 594 0 
L 594 225 
Q 1394 225 1394 428 
L 1394 3788 
Q 1063 3628 556 3628 
L 556 3853 
Q 1341 3853 1741 4263 
L 1831 4263 
Q 1853 4263 1873 4245 
Q 1894 4228 1894 4206 
L 1894 428 
Q 1894 225 2694 225 
L 2694 0 
L 594 0 
z
" transform="scale(0.015625)"/>
     </defs>
     <use xlink:href="#Cmmi10-4c" transform="translate(0 0.6875)"/>
     <use xlink:href="#Cmr10-31" transform="translate(68.017578 -16.31875) scale(0.7)"/>
    </g>
   </g>
   <g id="text_3">
    <!-- $\Delta \ell = L_2 - L_1$ -->
    <g transform="translate(481.456552 132.151199) scale(0.16 -0.16)">
     <defs>
      <path id="Cmr10-a2" d="M 347 0 
Q 294 0 294 50 
Q 297 56 298 59 
Q 300 63 300 72 
L 2503 4513 
Q 2531 4581 2619 4581 
L 2706 4581 
Q 2794 4581 2822 4513 
L 5025 72 
Q 5028 66 5029 61 
Q 5031 56 5031 50 
Q 5031 0 4978 0 
L 347 0 
z
M 769 513 
L 4141 513 
L 2456 3909 
L 769 513 
z
" transform="scale(0.015625)"/>
      <path id="Cmmi10-60" d="M 153 475 
Q 125 475 94 509 
Q 63 544 63 575 
Q 63 628 594 1113 
Q 594 1141 592 1159 
Q 591 1178 588 1197 
Q 588 1472 631 1758 
Q 675 2044 751 2328 
Q 828 2613 943 2922 
Q 1059 3231 1178 3463 
Q 1384 3884 1628 4198 
Q 1872 4513 2169 4513 
Q 2372 4513 2459 4373 
Q 2547 4234 2547 4025 
Q 2547 2853 991 1269 
Q 966 994 966 878 
Q 966 78 1331 78 
Q 1488 78 1642 161 
Q 1797 244 1908 341 
Q 2019 438 2216 628 
Q 2228 641 2253 641 
Q 2288 641 2319 603 
Q 2350 566 2350 531 
Q 2350 509 2322 488 
Q 2038 209 1809 56 
Q 1581 -97 1319 -97 
Q 981 -97 817 193 
Q 653 484 609 884 
Q 438 713 191 488 
Q 184 475 153 475 
z
M 1044 1575 
Q 1384 1938 1681 2338 
Q 1978 2738 2176 3180 
Q 2375 3622 2375 4044 
Q 2375 4347 2163 4347 
Q 1934 4347 1696 3801 
Q 1459 3256 1290 2622 
Q 1122 1988 1044 1575 
z
" transform="scale(0.015625)"/>
      <path id="Cmr10-3d" d="M 481 850 
Q 428 850 393 890 
Q 359 931 359 978 
Q 359 1031 393 1068 
Q 428 1106 481 1106 
L 4500 1106 
Q 4547 1106 4581 1068 
Q 4616 1031 4616 978 
Q 4616 931 4581 890 
Q 4547 850 4500 850 
L 481 850 
z
M 481 2094 
Q 428 2094 393 2131 
Q 359 2169 359 2222 
Q 359 2269 393 2309 
Q 428 2350 481 2350 
L 4500 2350 
Q 4547 2350 4581 2309 
Q 4616 2269 4616 2222 
Q 4616 2169 4581 2131 
Q 4547 2094 4500 2094 
L 481 2094 
z
" transform="scale(0.015625)"/>
      <path id="Cmsy10-a1" d="M 653 1472 
Q 600 1472 565 1512 
Q 531 1553 531 1600 
Q 531 1647 565 1687 
Q 600 1728 653 1728 
L 4325 1728 
Q 4375 1728 4408 1687 
Q 4441 1647 4441 1600 
Q 4441 1553 4408 1512 
Q 4375 1472 4325 1472 
L 653 1472 
z
" transform="scale(0.015625)"/>
     </defs>
     <use xlink:href="#Cmr10-a2" transform="translate(0 0.421875)"/>
     <use xlink:href="#Cmmi10-60" transform="translate(83.300781 0.421875)"/>
     <use xlink:href="#Cmr10-3d" transform="translate(142.460938 0.421875)"/>
     <use xlink:href="#Cmmi10-4c" transform="translate(237.705078 0.421875)"/>
     <use xlink:href="#Cmr10-32" transform="translate(305.722656 -16.584375) scale(0.7)"/>
     <use xlink:href="#Cmsy10-a1" transform="translate(364.658594 0.421875)"/>
     <use xlink:href="#Cmmi10-4c" transform="translate(459.902734 0.421875)"/>
     <use xlink:href="#Cmr10-31" transform="translate(527.920313 -16.584375) scale(0.7)"/>
    </g>
   </g>
   <g id="text_4">
    <!-- $\Rightarrow \Delta \theta = \frac{2\pi}{\lambda}\,\Delta \ell$ -->
    <g transform="translate(481.456552 155.271199) scale(0.16 -0.16)">
     <defs>
      <path id="Cmsy10-29" d="M 481 850 
Q 428 850 393 890 
Q 359 931 359 978 
Q 359 1031 393 1068 
Q 428 1106 481 1106 
L 4634 1106 
Q 5009 1416 5453 1600 
Q 5009 1784 4634 2094 
L 481 2094 
Q 428 2094 393 2131 
Q 359 2169 359 2222 
Q 359 2269 393 2309 
Q 428 2350 481 2350 
L 4353 2350 
Q 4194 2516 3950 2850 
Q 3706 3184 3706 3291 
Q 3706 3319 3723 3339 
Q 3741 3359 3769 3359 
L 3897 3359 
Q 3938 3359 3950 3322 
Q 4109 3009 4314 2750 
Q 4519 2491 4787 2272 
Q 5056 2053 5353 1906 
Q 5650 1759 5991 1672 
Q 6034 1644 6034 1600 
Q 6034 1550 5991 1538 
Q 5325 1369 4792 934 
Q 4259 500 3950 -122 
Q 3938 -159 3897 -159 
L 3769 -159 
Q 3706 -159 3706 -91 
Q 3706 -16 3832 179 
Q 3959 375 4111 567 
Q 4263 759 4353 850 
L 481 850 
z
" transform="scale(0.015625)"/>
      <path id="Cmmi10-b5" d="M 1031 -72 
Q 741 -72 566 140 
Q 391 353 323 653 
Q 256 953 256 1247 
L 256 1253 
Q 256 1572 317 1915 
Q 378 2259 493 2601 
Q 609 2944 744 3213 
Q 838 3400 986 3631 
Q 1134 3863 1317 4064 
Q 1500 4266 1711 4389 
Q 1922 4513 2138 4513 
L 2144 4513 
Q 2375 4513 2529 4384 
Q 2684 4256 2770 4056 
Q 2856 3856 2890 3628 
Q 2925 3400 2925 3194 
Q 2925 2709 2794 2204 
Q 2663 1700 2431 1228 
Q 2344 1050 2189 809 
Q 2034 569 1861 378 
Q 1688 188 1472 58 
Q 1256 -72 1038 -72 
L 1031 -72 
z
M 1044 97 
Q 1256 97 1451 323 
Q 1647 550 1794 873 
Q 1941 1197 2052 1536 
Q 2163 1875 2216 2113 
L 909 2113 
Q 809 1709 753 1417 
Q 697 1125 697 844 
Q 697 97 1044 97 
z
M 959 2338 
L 2272 2338 
Q 2341 2619 2381 2808 
Q 2422 2997 2450 3206 
Q 2478 3416 2478 3597 
Q 2478 4347 2138 4347 
Q 1731 4347 1436 3692 
Q 1141 3038 959 2338 
z
" transform="scale(0.015625)"/>
      <path id="Cmmi10-bc" d="M 647 109 
Q 647 144 672 213 
Q 850 584 1004 942 
Q 1159 1300 1282 1639 
Q 1406 1978 1509 2363 
L 1100 2363 
Q 866 2363 662 2216 
Q 459 2069 325 1844 
Q 313 1819 288 1819 
L 213 1819 
Q 153 1819 153 1881 
Q 153 1894 166 1919 
Q 375 2275 614 2517 
Q 853 2759 1153 2759 
L 3475 2759 
Q 3541 2759 3587 2715 
Q 3634 2672 3634 2597 
Q 3634 2503 3567 2433 
Q 3500 2363 3406 2363 
L 2591 2363 
Q 2488 1859 2478 1381 
Q 2478 766 2694 269 
Q 2713 231 2713 191 
Q 2713 122 2672 62 
Q 2631 3 2567 -34 
Q 2503 -72 2431 -72 
Q 2263 -72 2200 203 
Q 2138 478 2138 738 
Q 2138 1103 2200 1442 
Q 2263 1781 2400 2363 
L 1703 2363 
Q 1197 313 1094 103 
Q 1003 -72 844 -72 
Q 766 -72 706 -20 
Q 647 31 647 109 
z
" transform="scale(0.015625)"/>
      <path id="Cmmi10-b8" d="M 325 109 
Q 325 203 409 288 
L 2209 2053 
L 1575 3834 
Q 1500 4038 1417 4156 
Q 1334 4275 1178 4275 
Q 1106 4275 1106 4359 
Q 1113 4397 1138 4419 
Q 1163 4441 1203 4441 
Q 1875 4441 2016 4044 
L 3316 416 
Q 3400 144 3488 50 
Q 3519 3 3519 -13 
Q 3519 -72 3469 -72 
L 3122 -72 
Q 2963 -25 2869 206 
L 2284 1844 
L 738 25 
Q 622 -84 531 -84 
Q 450 -84 387 -28 
Q 325 28 325 109 
z
" transform="scale(0.015625)"/>
     </defs>
     <use xlink:href="#Cmsy10-29" transform="translate(17.558594 0.085938)"/>
     <use xlink:href="#Cmr10-a2" transform="translate(135.117188 0.085938)"/>
     <use xlink:href="#Cmmi10-b5" transform="translate(218.417969 0.085938)"/>
     <use xlink:href="#Cmr10-3d" transform="translate(282.900391 0.085938)"/>
     <use xlink:href="#Cmr10-32" transform="translate(378.144531 38.373438) scale(0.7)"/>
     <use xlink:href="#Cmmi10-bc" transform="translate(413.144531 38.373438) scale(0.7)"/>
     <use xlink:href="#Cmmi10-b8" transform="translate(395.144531 -42.2375) scale(0.7)"/>
     <use xlink:href="#Cmr10-a2" transform="translate(480.164681 0.085938)"/>
     <use xlink:href="#Cmmi10-60" transform="translate(563.465462 0.085938)"/>
     <path d="M 378.144531 12.585938 
L 378.144531 18.835938 
L 453.032227 18.835938 
L 453.032227 12.585938 
L 378.144531 12.585938 
z
"/>
    </g>
   </g>
   <g id="patch_2">
    <path d="M 102.786207 191.673993 
Q 102.786207 181.799034 102.786207 171.924075 
" style="fill: none; stroke: #000000; stroke-linecap: round"/>
    <path d="M 105.986207 185.273993 
L 102.786207 191.673993 
L 99.586207 185.273993 
" style="fill: none; stroke: #000000; stroke-linecap: round"/>
    <path d="M 99.586207 178.324075 
L 102.786207 171.924075 
L 105.986207 178.324075 
" style="fill: none; stroke: #000000; stroke-linecap: round"/>
   </g>
   <g id="text_5">
    <!-- $d$ -->
    <g transform="translate(82.775172 186.215) scale(0.16 -0.16)">
     <defs>
      <path id="Cmmi10-64" d="M 1113 -72 
Q 709 -72 476 233 
Q 244 538 244 953 
Q 244 1363 456 1803 
Q 669 2244 1030 2536 
Q 1391 2828 1806 2828 
Q 1994 2828 2145 2723 
Q 2297 2619 2381 2444 
L 2741 3872 
Q 2766 3981 2772 4044 
Q 2772 4147 2356 4147 
Q 2291 4147 2291 4231 
Q 2294 4247 2305 4287 
Q 2316 4328 2333 4350 
Q 2350 4372 2381 4372 
L 3244 4441 
Q 3322 4441 3322 4359 
L 2400 678 
Q 2356 572 2356 372 
Q 2356 97 2541 97 
Q 2741 97 2845 351 
Q 2950 606 3022 941 
Q 3034 978 3072 978 
L 3150 978 
Q 3175 978 3190 956 
Q 3206 934 3206 916 
Q 3094 469 2961 198 
Q 2828 -72 2528 -72 
Q 2313 -72 2147 54 
Q 1981 181 1941 391 
Q 1528 -72 1113 -72 
z
M 1119 97 
Q 1350 97 1567 270 
Q 1784 444 1941 678 
Q 1947 684 1947 703 
L 2297 2113 
Q 2259 2338 2131 2500 
Q 2003 2663 1791 2663 
Q 1575 2663 1389 2486 
Q 1203 2309 1075 2069 
Q 950 1813 836 1366 
Q 722 919 722 672 
Q 722 450 817 273 
Q 913 97 1119 97 
z
" transform="scale(0.015625)"/>
     </defs>
     <use xlink:href="#Cmmi10-64" transform="translate(0 0.609375)"/>
    </g>
   </g>
   <g id="patch_3">
    <path d="M 469.104296 311.7375 
Q 287.50365 311.7375 105.903005 311.7375 
" style="fill: none; stroke: #000000; stroke-linecap: round"/>
    <path d="M 462.704296 308.5375 
L 469.104296 311.7375 
L 462.704296 314.9375 
" style="fill: none; stroke: #000000; stroke-linecap: round"/>
    <path d="M 112.303005 314.9375 
L 105.903005 311.7375 
L 112.303005 308.5375 
" style="fill: none; stroke: #000000; stroke-linecap: round"/>
   </g>
   <g id="text_6">
    <!-- $L$ -->
    <g transform="translate(281.983448 329.0625) scale(0.16 -0.16)">
     <use xlink:href="#Cmmi10-4c" transform="translate(0 0.6875)"/>
    </g>
   </g>
  </g>
 </g>
 <defs>
  <clipPath id="pf6cd89d0e0">
   <rect x="72" y="43.2" width="446.4" height="277.2"/>
  </clipPath>
 </defs>
</svg>
